<svg width="40" height="40" viewBox="0 0 40 40" fill="none" xmlns="http://www.w3.org/2000/svg">
<path d="M39.9878 19.9609C39.9878 21.3672 38.9461 22.4688 37.7655 22.4688H35.5431L35.5918 34.9766C35.5918 35.1953 35.5779 35.3984 35.557 35.6094V36.875C35.557 38.6016 34.3139 40 32.7791 40H31.668C31.5916 40 31.5152 39.9297 31.4388 39.9922C31.3416 39.9297 31.2444 40 31.1471 40H27.2234C25.6886 40 24.4455 38.6016 24.4455 36.875V30C24.4455 28.6172 23.4524 27.5 22.2231 27.5H17.7785C16.5493 27.5 15.5562 28.6172 15.5562 30V36.875C15.5562 38.6016 14.3131 40 12.7783 40H8.8962C8.79203 40 8.68786 39.9922 8.58369 39.9844C8.50035 39.9922 8.41702 40 8.33368 40H7.22252C5.68843 40 4.44463 38.6016 4.44463 36.875V28.125C4.44463 28.0547 4.44671 27.9766 4.45088 27.9063V22.4688H2.22579C0.973652 22.4688 0 21.3672 0 19.9609C0 19.2578 0.20862 18.6328 0.695168 18.0859L18.5008 0.62625C18.9869 0.0782812 19.5425 0 20.0286 0C20.5147 0 21.0703 0.156562 21.4939 0.547969L39.2239 18.0859C39.7794 18.6328 40.0642 19.2578 39.9878 19.9609Z" fill="#F1FDFF"/>
</svg>
