<svg width="40" height="40" viewBox="0 0 40 40" fill="none" xmlns="http://www.w3.org/2000/svg">
<path d="M0 7.5C0 4.73828 1.98958 2.5 4.44444 2.5H35.5556C38.0069 2.5 40 4.73828 40 7.5V32.5C40 35.2578 38.0069 37.5 35.5556 37.5H4.44444C1.98958 37.5 0 35.2578 0 32.5V7.5ZM11.1111 20C11.1111 18.6172 10.1181 17.5 8.88889 17.5C7.65972 17.5 6.66667 18.6172 6.66667 20C6.66667 21.3828 7.65972 22.5 8.88889 22.5C10.1181 22.5 11.1111 21.3828 11.1111 20ZM11.1111 12.5C11.1111 11.1172 10.1181 10 8.88889 10C7.65972 10 6.66667 11.1172 6.66667 12.5C6.66667 13.8828 7.65972 15 8.88889 15C10.1181 15 11.1111 13.8828 11.1111 12.5ZM11.1111 27.5C11.1111 26.1172 10.1181 25 8.88889 25C7.65972 25 6.66667 26.1172 6.66667 27.5C6.66667 28.8828 7.65972 30 8.88889 30C10.1181 30 11.1111 28.8828 11.1111 27.5ZM15.5556 10.625C14.6319 10.625 13.8889 11.4609 13.8889 12.5C13.8889 13.5391 14.6319 14.375 15.5556 14.375H31.1111C32.0347 14.375 32.7778 13.5391 32.7778 12.5C32.7778 11.4609 32.0347 10.625 31.1111 10.625H15.5556ZM15.5556 18.125C14.6319 18.125 13.8889 18.9609 13.8889 20C13.8889 21.0391 14.6319 21.875 15.5556 21.875H31.1111C32.0347 21.875 32.7778 21.0391 32.7778 20C32.7778 18.9609 32.0347 18.125 31.1111 18.125H15.5556ZM15.5556 25.625C14.6319 25.625 13.8889 26.4609 13.8889 27.5C13.8889 28.5391 14.6319 29.375 15.5556 29.375H31.1111C32.0347 29.375 32.7778 28.5391 32.7778 27.5C32.7778 26.4609 32.0347 25.625 31.1111 25.625H15.5556Z" fill="white"/>
</svg>
