<svg width="40" height="40" viewBox="0 0 40 40" fill="none" xmlns="http://www.w3.org/2000/svg">
<path d="M7.5 37.5H12.5C13.8828 37.5 15 36.3828 15 35C15 33.6172 13.8828 32.5 12.5 32.5H7.5C6.11953 32.5 5 31.3805 5 30V10C5 8.61953 6.11953 7.5 7.5 7.5H12.5C13.8828 7.5 15 6.38047 15 5C15 3.61953 13.8828 2.5 12.5 2.5H7.5C3.35781 2.5 0 5.85781 0 10V30C0 34.1406 3.35781 37.5 7.5 37.5ZM39.4375 18.6328L28.1797 8.00781C27.6348 7.49391 26.8359 7.35352 26.1484 7.64891C25.4607 7.94555 25.0148 8.62313 25.0148 9.37156L25.0077 14.9966L15.0077 14.9965C13.6256 14.9965 12.5061 16.116 12.5061 17.4965V22.4965C12.5061 23.877 13.6264 24.9965 15.0077 24.9965L25.0077 24.9966L25.0148 30.5513C25.0148 31.2995 25.4607 31.977 26.1484 32.2739C26.8362 32.5693 27.6352 32.4289 28.1797 31.915L39.4375 21.29C40.1875 20.6562 40.1875 19.3438 39.4375 18.6328Z" fill="white"/>
</svg>
