<svg width="27" height="31" viewBox="0 0 27 31" fill="none" xmlns="http://www.w3.org/2000/svg">
<path d="M26.0357 15.5C26.0357 16.5711 25.172 17.4381 24.1071 17.4381H15.4285V26.1569C15.4285 27.2279 14.5649 28.0938 13.5 28.0938C12.435 28.0938 11.5714 27.2279 11.5714 26.1569V17.4381H2.89281C1.82787 17.4381 0.964233 16.5711 0.964233 15.5C0.964233 14.4289 1.82787 13.5631 2.89281 13.5631H11.5714V4.84436C11.5714 3.77328 12.435 2.90625 13.5 2.90625C14.5649 2.90625 15.4285 3.77328 15.4285 4.84436V13.5631H24.1071C25.1738 13.5625 26.0357 14.4283 26.0357 15.5Z" fill="#FFEFEF"/>
</svg>
